<?xml version="1.0" standalone="no"?><!DOCTYPE svg PUBLIC "-//W3C//DTD SVG 1.1//EN" "http://www.w3.org/Graphics/SVG/1.1/DTD/svg11.dtd"><svg t="1658539652818" class="icon" viewBox="0 0 1024 1024" version="1.1" xmlns="http://www.w3.org/2000/svg" p-id="1526" xmlns:xlink="http://www.w3.org/1999/xlink" width="200" height="200"><defs><style type="text/css">@font-face { font-family: feedback-iconfont; src: url("//at.alicdn.com/t/font_1031158_u69w8yhxdu.woff2?t=1630033759944") format("woff2"), url("//at.alicdn.com/t/font_1031158_u69w8yhxdu.woff?t=1630033759944") format("woff"), url("//at.alicdn.com/t/font_1031158_u69w8yhxdu.ttf?t=1630033759944") format("truetype"); }
</style></defs><path d="M430.131168 0.06396H598.665834V92.742036H430.131168zM94.596877 209.021362l119.157526-119.093567L279.249469 155.422861 160.027983 274.580387zM4.988882 425.590006h92.678076V594.188632H4.988882zM214.074204 929.786883l-119.221487-119.157526 65.495066-65.495066 119.221486 119.221487zM430.514928 926.652842h168.470706v92.678076H430.514928zM934.711805 810.373517l-119.221486 119.221486-65.559026-65.495065 119.221487-119.221487zM931.449844 425.206246h92.678076v168.662586h-92.678076zM815.106558 89.607995l119.157527 119.285447-65.495066 65.431105-119.157526-119.221486z" fill="#42D342" p-id="1527"></path><path d="M514.622361 943.730169A434.54441 434.54441 0 0 1 80.589631 509.697439a434.54441 434.54441 0 0 1 434.03273-434.096689 434.60837 434.60837 0 0 1 434.09669 434.096689c0 239.274453-194.758276 434.03273-434.09669 434.03273z m0-759.717177a326.004247 326.004247 0 0 0-325.684447 325.684447 326.132167 326.132167 0 0 0 325.684447 325.748407 326.068207 326.068207 0 0 0 325.748407-325.748407 326.068207 326.068207 0 0 0-325.748407-325.684447z" fill="#86DD72" p-id="1528"></path></svg>